X Lossless Decoder version 20110417 (131.0)

XLD extraction logfile from 2011-05-02 03:56:23 +0900

Kaori Muraji / Amanda

Used drive : HL-DT-ST BD-RE  BH10NS30 (revision EL00)

Ripper mode             : CDParanoia III 10.2
Disable audio cache     : OK for the drive with a cache less than 2750KiB
Make use of C2 pointers : NO
Read offset correction  : 667
Max retry count         : 100
Gap status              : Analyzed, Appended

TOC of the extracted CD
     Track |   Start  |  Length  | Start sector | End sector 
    ---------------------------------------------------------
        1  | 00:00:00 | 04:24:33 |         0    |    19832   
        2  | 04:24:33 | 04:11:63 |     19833    |    38720   
        3  | 08:36:21 | 05:50:17 |     38721    |    64987   
        4  | 14:26:38 | 05:28:09 |     64988    |    89596   
        5  | 19:54:47 | 04:24:36 |     89597    |   109432   

AccurateRip Summary
    Track 01 : OK (confidence 6)
    Track 02 : OK (confidence 6)
    Track 03 : OK (confidence 6)
    Track 04 : NG
    Track 05 : OK (confidence 6)
        ->4 track(s) accurately ripped, 1 track(s) not, 0 track(s) not found

All Tracks
    Filename : /Users/angelicalbite/Music/flac/Amanda.flac
    CRC32 hash             : 066AAE84
    CRC32 hash (skip zero) : AC5F1277
    Statistics
        Read error                           : 0
        Skipped (treated as error)           : 0
        Edge jitter error (maybe fixed)      : 1
        Atom jitter error (maybe fixed)      : 1
        Drift error (maybe fixed)            : 0
        Dropped bytes error (maybe fixed)    : 1
        Duplicated bytes error (maybe fixed) : 1

Track 01
    Pre-gap length : 00:02:00

    CRC32 hash             : 4CB3B27A
    CRC32 hash (skip zero) : B1E7E377
    AccurateRip signature  : B1A06CDF
        ->Accurately ripped! (confidence 6)
    Statistics
        Read error                           : 0
        Skipped (treated as error)           : 0
        Edge jitter error (maybe fixed)      : 0
        Atom jitter error (maybe fixed)      : 0
        Drift error (maybe fixed)            : 0
        Dropped bytes error (maybe fixed)    : 0
        Duplicated bytes error (maybe fixed) : 0

Track 02
    Pre-gap length : 00:04:56

    CRC32 hash             : E1FF1EDD
    CRC32 hash (skip zero) : 059F3FF4
    AccurateRip signature  : DF68635F
        ->Accurately ripped! (confidence 6)
    Statistics
        Read error                           : 0
        Skipped (treated as error)           : 0
        Edge jitter error (maybe fixed)      : 0
        Atom jitter error (maybe fixed)      : 0
        Drift error (maybe fixed)            : 0
        Dropped bytes error (maybe fixed)    : 0
        Duplicated bytes error (maybe fixed) : 0

Track 03
    Pre-gap length : 00:04:56

    CRC32 hash             : 2347F84A
    CRC32 hash (skip zero) : 133F6A21
    AccurateRip signature  : 91A726BA
        ->Accurately ripped! (confidence 6)
    Statistics
        Read error                           : 0
        Skipped (treated as error)           : 0
        Edge jitter error (maybe fixed)      : 0
        Atom jitter error (maybe fixed)      : 0
        Drift error (maybe fixed)            : 0
        Dropped bytes error (maybe fixed)    : 0
        Duplicated bytes error (maybe fixed) : 0

Track 04
    Pre-gap length : 00:04:56

    CRC32 hash             : 459AEC05
    CRC32 hash (skip zero) : 5722FD36
    AccurateRip signature  : 1EDFF9A5
        ->Rip may not be accurate.
    Statistics
        Read error                           : 0
        Skipped (treated as error)           : 0
        Edge jitter error (maybe fixed)      : 1
        Atom jitter error (maybe fixed)      : 1
        Drift error (maybe fixed)            : 0
        Dropped bytes error (maybe fixed)    : 1
        Duplicated bytes error (maybe fixed) : 1

Track 05
    Pre-gap length : 00:04:56

    CRC32 hash             : E891E70A
    CRC32 hash (skip zero) : 986FE39F
    AccurateRip signature  : C08F1875
        ->Accurately ripped! (confidence 6)
    Statistics
        Read error                           : 0
        Skipped (treated as error)           : 0
        Edge jitter error (maybe fixed)      : 0
        Atom jitter error (maybe fixed)      : 0
        Drift error (maybe fixed)            : 0
        Dropped bytes error (maybe fixed)    : 0
        Duplicated bytes error (maybe fixed) : 0

No errors occurred

End of status report
